<?xml version="1.0" encoding="iso-8859-1"?>
<!-- Generator: Adobe Illustrator 16.0.0, SVG Export Plug-In . SVG Version: 6.00 Build 0)  -->
<!DOCTYPE svg PUBLIC "-//W3C//DTD SVG 1.1//EN" "http://www.w3.org/Graphics/SVG/1.1/DTD/svg11.dtd">
<svg version="1.1" id="Capa_1" xmlns="http://www.w3.org/2000/svg" xmlns:xlink="http://www.w3.org/1999/xlink" x="0px" y="0px"
	 width="485.212px" height="485.212px" viewBox="0 0 485.212 485.212" style="enable-background:new 0 0 485.212 485.212;"
	 xml:space="preserve">
<g>
	<path d="M333.584,363.906h121.303L333.584,485.212V363.906z M303.253,348.748v136.465H60.649
		c-16.746,0-30.324-13.562-30.324-30.326V30.327C30.325,13.567,43.904,0,60.649,0H424.56c16.765,0,30.327,13.567,30.327,30.327
		v303.258H318.421C310.04,333.584,303.253,340.37,303.253,348.748z M90.976,106.141c0,8.379,6.781,15.163,15.161,15.163h272.938
		c8.378,0,15.159-6.784,15.159-15.163c0-8.382-6.781-15.164-15.159-15.164H106.137C97.757,90.978,90.976,97.759,90.976,106.141z
		 M90.976,197.119c0,8.38,6.781,15.163,15.161,15.163h272.938c8.378,0,15.159-6.783,15.159-15.163
		c0-8.382-6.781-15.164-15.159-15.164H106.137C97.757,181.955,90.976,188.736,90.976,197.119z M379.075,303.257
		c8.378,0,15.159-6.781,15.159-15.163c0-8.383-6.781-15.164-15.159-15.164H106.137c-8.38,0-15.161,6.781-15.161,15.164
		c0,8.382,6.781,15.163,15.161,15.163H379.075z"/>
</g>
<g>
</g>
<g>
</g>
<g>
</g>
<g>
</g>
<g>
</g>
<g>
</g>
<g>
</g>
<g>
</g>
<g>
</g>
<g>
</g>
<g>
</g>
<g>
</g>
<g>
</g>
<g>
</g>
<g>
</g>
</svg>
