<?xml version="1.0" encoding="UTF-8" standalone="no"?>
<svg
   xmlns:dc="http://purl.org/dc/elements/1.1/"
   xmlns:cc="http://creativecommons.org/ns#"
   xmlns:rdf="http://www.w3.org/1999/02/22-rdf-syntax-ns#"
   xmlns:svg="http://www.w3.org/2000/svg"
   xmlns="http://www.w3.org/2000/svg"
   viewBox="0 0 950 248.75"
   height="248.75"
   width="950"
   xml:space="preserve"
   version="1.1"
   id="svg2"><metadata
     id="metadata8"><rdf:RDF><cc:Work
         rdf:about=""><dc:format>image/svg+xml</dc:format><dc:type
           rdf:resource="http://purl.org/dc/dcmitype/StillImage" /></cc:Work></rdf:RDF></metadata><defs
     id="defs6"><clipPath
       id="clipPath92"
       clipPathUnits="userSpaceOnUse"><path
         id="path94"
         d="m 382.387,1931.33 c -22.242,-73.87 245.558,-483.16 239.949,-488.78 370.301,96.33 623.484,32.49 765.374,0.07 3.78,-0.87 -180.19,455.06 -239.83,488.69 -66.04,66.04 -740.853,81.87 -765.493,0.02 z" /></clipPath></defs><g
     transform="matrix(1.25,0,0,-1.25,0,248.75)"
     id="g10"><g
       transform="scale(0.1,0.1)"
       id="g12"><path
         id="path14"
         style="fill:#231f20;fill-opacity:1;fill-rule:nonzero;stroke:none"
         d="m 2062.56,98.1172 47.2344,0 0,311.375 -47.2344,0 0,-311.375 z" /><path
         id="path16"
         style="fill:#231f20;fill-opacity:1;fill-rule:nonzero;stroke:none"
         d="m 2374.37,98.1172 0,141.6948 c 0,24.926 -5.26,45.918 -22.31,62.536 -13.12,12.683 -31.92,20.117 -54.67,20.117 -22.3,0 -43.73,-8.309 -59.03,-24.93 l 0,22.309 -43.74,0 0,-221.7268 44.61,0 0,135.1368 c 0,34.105 21,49.414 45.92,49.414 24.93,0 44.61,-14.867 44.61,-49.414 l 0,-135.1368 44.61,0" /><path
         id="path18"
         style="fill:#231f20;fill-opacity:1;fill-rule:nonzero;stroke:none"
         d="m 2544.45,98.1172 0,38.0508 -18.36,0 c -16.62,0 -24.49,9.617 -24.49,25.797 l 0,119.828 42.85,0 0,34.113 -42.85,0 0,67.34 -44.61,0 0,-67.34 -25.37,0 0,-34.113 25.37,0 0,-122.008 c 0,-31.93 19.24,-61.6678 60.78,-61.6678 l 26.68,0" /><path
         id="path20"
         style="fill:#231f20;fill-opacity:1;fill-rule:evenodd;stroke:none"
         d="m 2786.66,196.078 0,19.68 c 0,62.972 -34.55,106.707 -94.03,106.707 -56.85,0 -94.02,-41.547 -94.02,-113.27 0,-84.398 44.17,-113.6989 99.71,-113.6989 38.91,0 60.35,11.8049 83.09,34.5469 l -28.43,26.68 c -15.75,-15.743 -28.86,-22.743 -53.79,-22.743 -36.3,0 -56.41,24.051 -56.41,62.098 l 143.88,0 z m -44.17,31.051 -99.71,0 c 0.43,13.559 1.31,20.117 5.68,30.176 7,16.613 23.18,27.984 44.17,27.984 20.99,0 36.74,-11.371 43.73,-27.984 4.38,-10.059 5.69,-16.617 6.13,-30.176" /><path
         id="path22"
         style="fill:#231f20;fill-opacity:1;fill-rule:nonzero;stroke:none"
         d="m 3010.03,301.469 c -15.31,15.312 -31.48,20.996 -52.91,20.996 -24.93,0 -47.67,-10.93 -59.04,-26.68 l 0,24.059 -43.74,0 0,-221.7268 44.61,0 0,134.6948 c 0,30.618 20.12,49.856 44.17,49.856 15.31,0 23.18,-4.813 33.24,-14.867 l 33.67,33.668" /><path
         id="path24"
         style="fill:#231f20;fill-opacity:1;fill-rule:nonzero;stroke:none"
         d="m 3234.82,98.1172 0,141.6948 c 0,24.926 -5.25,45.918 -22.3,62.536 -13.12,12.683 -31.93,20.117 -54.67,20.117 -22.3,0 -43.73,-8.309 -59.03,-24.93 l 0,22.309 -43.74,0 0,-221.7268 44.61,0 0,135.1368 c 0,34.105 20.99,49.414 45.92,49.414 24.93,0 44.6,-14.867 44.6,-49.414 l 0,-135.1368 44.61,0" /><path
         id="path26"
         style="fill:#231f20;fill-opacity:1;fill-rule:evenodd;stroke:none"
         d="m 3488.88,196.078 0,19.68 c 0,62.972 -34.55,106.707 -94.02,106.707 -56.86,0 -94.04,-41.547 -94.04,-113.27 0,-84.398 44.18,-113.6989 99.72,-113.6989 38.92,0 60.35,11.8049 83.09,34.5469 l -28.42,26.68 c -15.75,-15.743 -28.87,-22.743 -53.8,-22.743 -36.3,0 -56.41,24.051 -56.41,62.098 l 143.88,0 z m -44.17,31.051 -99.71,0 c 0.43,13.559 1.31,20.117 5.69,30.176 6.99,16.613 23.17,27.984 44.17,27.984 20.98,0 36.73,-11.371 43.72,-27.984 4.38,-10.059 5.69,-16.617 6.13,-30.176" /><path
         id="path28"
         style="fill:#231f20;fill-opacity:1;fill-rule:nonzero;stroke:none"
         d="m 3649.28,98.1172 0,38.0508 -18.36,0 c -16.62,0 -24.49,9.617 -24.49,25.797 l 0,119.828 42.85,0 0,34.113 -42.85,0 0,67.34 -44.61,0 0,-67.34 -25.36,0 0,-34.113 25.36,0 0,-122.008 c 0,-31.93 19.24,-61.6678 60.78,-61.6678 l 26.68,0" /><path
         id="path30"
         style="fill:#231f20;fill-opacity:1;fill-rule:evenodd;stroke:none"
         d="m 3896.29,209.195 c 0,33.672 -2.62,71.289 -24.93,93.59 -12.24,12.246 -31.92,19.68 -54.22,19.68 -24.05,0 -41.98,-6.125 -58.6,-26.238 l 0,23.617 -43.74,0 0,-311.37525 44.61,0 0,112.39425 c 16.18,-19.246 34.55,-25.3669 58.16,-25.3669 22.31,0 41.55,7.4339 53.79,19.6799 22.31,22.301 24.93,60.347 24.93,94.019 z m -44.61,0 c 0,-39.355 -5.68,-73.902 -45.91,-73.902 -40.23,0 -46.36,34.547 -46.36,73.902 0,39.36 6.13,73.473 46.36,73.473 40.23,0 45.91,-34.113 45.91,-73.473" /><path
         id="path32"
         style="fill:#231f20;fill-opacity:1;fill-rule:evenodd;stroke:none"
         d="m 4139.86,209.195 c 0,37.176 -5.24,65.164 -26.24,87.032 -14.43,14.867 -36.29,26.238 -66.46,26.238 -30.18,0 -51.61,-11.371 -66.04,-26.238 -20.99,-21.868 -26.24,-49.856 -26.24,-87.032 0,-37.609 5.25,-65.593 26.24,-87.461 14.43,-14.867 35.86,-26.2379 66.04,-26.2379 30.17,0 52.03,11.3709 66.46,26.2379 21,21.868 26.24,49.852 26.24,87.461 z m -44.6,0 c 0,-24.047 -1.75,-47.23 -15.31,-60.781 -8.31,-8.316 -19.67,-13.121 -32.79,-13.121 -13.12,0 -24.06,4.805 -32.37,13.121 -13.56,13.551 -15.31,36.734 -15.31,60.781 0,24.059 1.75,47.235 15.31,60.793 8.31,8.309 19.25,12.68 32.37,12.68 13.12,0 24.48,-4.371 32.79,-12.68 13.56,-13.558 15.31,-36.734 15.31,-60.793" /><path
         id="path34"
         style="fill:#231f20;fill-opacity:1;fill-rule:nonzero;stroke:none"
         d="m 4364.57,301.469 c -15.3,15.312 -31.48,20.996 -52.91,20.996 -24.92,0 -47.66,-10.93 -59.04,-26.68 l 0,24.059 -43.73,0 0,-221.7268 44.61,0 0,134.6948 c 0,30.618 20.12,49.856 44.17,49.856 15.3,0 23.18,-4.813 33.23,-14.867 l 33.67,33.668" /><path
         id="path36"
         style="fill:#231f20;fill-opacity:1;fill-rule:nonzero;stroke:none"
         d="m 4502.34,98.1172 0,38.0508 -18.36,0 c -16.63,0 -24.5,9.617 -24.5,25.797 l 0,119.828 42.86,0 0,34.113 -42.86,0 0,67.34 -44.6,0 0,-67.34 -25.37,0 0,-34.113 25.37,0 0,-122.008 c 0,-31.93 19.23,-61.6678 60.78,-61.6678 l 26.68,0" /><path
         id="path38"
         style="fill:#231f20;fill-opacity:1;fill-rule:evenodd;stroke:none"
         d="m 4730.98,98.1172 0,148.2538 c 0,50.289 -30.61,76.094 -91.4,76.094 -36.73,0 -58.6,-7.434 -79.59,-31.926 l 29.31,-27.551 c 12.24,15.742 24.04,21.426 48.53,21.426 34.56,0 48.55,-13.551 48.55,-41.547 l 0,-15.738 -58.6,0 c -50.73,0 -76.53,-26.68 -76.53,-63.848 0,-18.804 6.12,-35.859 17.48,-47.672 13.56,-13.554 31.93,-20.1129 59.48,-20.1129 27.56,0 42.86,6.5589 59.04,22.7419 l 0,-20.1208 43.73,0 z m -44.6,80.0308 c 0,-15.742 -3.06,-26.238 -9.62,-32.796 -11.81,-11.372 -24.49,-12.688 -41.55,-12.688 -27.98,0 -40.67,11.371 -40.67,31.492 0,20.117 13.56,31.922 39.8,31.922 l 52.04,0 0,-17.93" /><path
         id="path40"
         style="fill:#231f20;fill-opacity:1;fill-rule:nonzero;stroke:none"
         d="m 4895.35,98.1172 0,38.0508 -19.68,0 c -17.93,0 -24.06,8.742 -24.06,25.797 l 0,247.527 -44.6,0 0,-250.148 c 0,-32.797 18.37,-61.2268 60.79,-61.2268 l 27.55,0" /><path
         id="path42"
         style="fill:#231f20;fill-opacity:1;fill-rule:nonzero;stroke:none"
         d="m 4946.84,198.699 127.695,0 0,41.5469 -127.695,0 0,-41.5469 z" /><path
         id="path44"
         style="fill:#231f20;fill-opacity:1;fill-rule:nonzero;stroke:none"
         d="m 5352.17,98.1172 0,42.4218 -151.76,0 0,93.59 129.45,0 0,41.976 -129.45,0 0,90.969 151.76,0 0,42.418 -198.98,0 0,-311.3748 198.98,0" /><path
         id="path46"
         style="fill:#231f20;fill-opacity:1;fill-rule:nonzero;stroke:none"
         d="m 5600.03,98.1172 0,141.6948 c 0,24.926 -5.25,45.918 -22.31,62.536 -13.12,12.683 -31.92,20.117 -54.67,20.117 -22.3,0 -43.72,-8.309 -59.03,-24.93 l 0,22.309 -43.73,0 0,-221.7268 44.6,0 0,135.1368 c 0,34.105 20.99,49.414 45.92,49.414 24.93,0 44.61,-14.867 44.61,-49.414 l 0,-135.1368 44.61,0" /><path
         id="path48"
         style="fill:#231f20;fill-opacity:1;fill-rule:nonzero;stroke:none"
         d="m 5770.12,98.1172 0,38.0508 -18.37,0 c -16.62,0 -24.49,9.617 -24.49,25.797 l 0,119.828 42.86,0 0,34.113 -42.86,0 0,67.34 -44.61,0 0,-67.34 -25.36,0 0,-34.113 25.36,0 0,-122.008 c 0,-31.93 19.24,-61.6678 60.79,-61.6678 l 26.68,0" /><path
         id="path50"
         style="fill:#231f20;fill-opacity:1;fill-rule:nonzero;stroke:none"
         d="m 6121.64,319.844 -47.66,0 -42.86,-156.129 -51.17,156.129 -34.54,0 -51.61,-156.129 -42.86,156.129 -47.23,0 68.66,-221.7268 38.49,0 51.6,154.8168 52.04,-154.8168 38.05,0 69.09,221.7268" /><path
         id="path52"
         style="fill:#231f20;fill-opacity:1;fill-rule:evenodd;stroke:none"
         d="m 6215.2,363.57 0,47.231 -47.23,0 0,-47.231 47.23,0 z m -1.31,-265.4528 0,221.7268 -44.61,0 0,-221.7268 44.61,0" /><path
         id="path54"
         style="fill:#231f20;fill-opacity:1;fill-rule:nonzero;stroke:none"
         d="m 6453.91,126.98 -30.61,29.301 c -14,-15.301 -24.92,-20.988 -42.42,-20.988 -17.05,0 -31.49,6.996 -41.11,19.68 -9.62,12.246 -13.12,28.425 -13.12,54.222 0,25.809 3.5,41.547 13.12,53.793 9.62,12.684 24.06,19.68 41.11,19.68 17.5,0 28.42,-5.688 42.42,-20.992 l 30.61,29.738 c -20.99,22.301 -42.42,31.051 -73.03,31.051 -49.85,0 -98.84,-30.176 -98.84,-113.27 0,-83.09 48.99,-113.6989 98.84,-113.6989 30.61,0 52.04,9.1799 73.03,31.4839" /><path
         id="path56"
         style="fill:#231f20;fill-opacity:1;fill-rule:nonzero;stroke:none"
         d="m 6708.83,98.1172 -86.58,134.6948 76.96,87.032 -54.23,0 -86.15,-102.34 0,191.988 -44.61,0 0,-311.3748 44.61,0 0,65.1638 32.8,37.168 62.1,-102.3318 55.1,0" /><path
         id="path58"
         style="fill:#231f20;fill-opacity:1;fill-rule:nonzero;stroke:none"
         d="m 6849.61,98.1172 0,38.0508 -19.68,0 c -17.93,0 -24.05,8.742 -24.05,25.797 l 0,247.527 -44.61,0 0,-250.148 c 0,-32.797 18.37,-61.2268 60.79,-61.2268 l 27.55,0" /><path
         id="path60"
         style="fill:#231f20;fill-opacity:1;fill-rule:nonzero;stroke:none"
         d="m 7084.78,98.1172 0,221.7268 -44.61,0 0,-135.137 c 0,-34.113 -20.99,-49.414 -45.92,-49.414 -24.92,0 -44.6,14.867 -44.6,49.414 l 0,135.137 -44.61,0 0,-141.696 c 0,-24.925 5.25,-45.918 22.3,-62.539 13.12,-12.679 31.93,-20.1129 54.67,-20.1129 22.3,0 43.74,8.3089 59.04,24.9219 l 0,-22.3008 43.73,0" /><path
         id="path62"
         style="fill:#231f20;fill-opacity:1;fill-rule:nonzero;stroke:none"
         d="m 7344.09,98.1172 0,141.6948 c 0,24.926 -5.26,45.918 -22.31,62.536 -13.12,12.683 -31.92,20.117 -54.67,20.117 -22.3,0 -43.73,-8.309 -59.03,-24.93 l 0,22.309 -43.74,0 0,-221.7268 44.61,0 0,135.1368 c 0,34.105 21,49.414 45.92,49.414 24.93,0 44.61,-14.867 44.61,-49.414 l 0,-135.1368 44.61,0" /><path
         id="path64"
         style="fill:#231f20;fill-opacity:1;fill-rule:evenodd;stroke:none"
         d="m 7590.7,99.4336 0,220.4104 -43.29,0 0,-23.617 c -16.62,20.113 -34.55,26.238 -58.17,26.238 -22.3,0 -41.1,-7 -53.35,-19.246 -21.43,-21.426 -24.92,-52.477 -24.92,-90.086 0,-37.61 3.49,-68.656 24.92,-90.082 12.25,-12.246 30.62,-19.688 52.92,-19.688 22.74,0 41.1,6.125 57.29,25.371 l 0,-28.425 c 0,-29.7426 -14.44,-56.4145 -52.05,-56.4145 -21.86,0 -34.1,6.5586 -48.1,19.6797 l -28.42,-28.4258 c 23.17,-21.4296 44.6,-29.30465 78.28,-29.30465 59.03,0 94.89,39.35935 94.89,93.58985 z m -44.6,113.6994 c 0,-34.985 -4.81,-69.531 -45.05,-69.531 -40.23,0 -45.48,34.546 -45.48,69.531 0,34.988 5.25,69.535 45.48,69.535 40.24,0 45.05,-34.547 45.05,-69.535" /><path
         id="path66"
         style="fill:#231f20;fill-opacity:1;fill-rule:nonzero;stroke:none"
         d="m 2734.54,672.879 0,311.726 c 0,54.835 -14.43,101.015 -51.95,137.575 -28.87,27.9 -73.11,44.26 -123.14,44.26 -64.47,0 -113.53,-23.1 -152.98,-71.2 -30.8,47.15 -77.93,71.2 -138.55,71.2 -49.06,0 -97.17,-19.25 -129.88,-54.85 l 0,49.08 -96.22,0 0,-487.791 98.14,0 0,297.297 c 0,75.034 46.19,108.704 101.02,108.704 54.84,0 98.14,-32.7 98.14,-108.704 l 0,-297.297 98.14,0 0,302.094 c 0,70.237 48.11,103.907 101.01,103.907 54.85,0 98.14,-32.7 98.14,-108.704 l 0,-297.297 98.13,0" /><path
         id="path68"
         style="fill:#231f20;fill-opacity:1;fill-rule:evenodd;stroke:none"
         d="m 3244.51,672.879 0,326.156 c 0,110.635 -67.34,167.405 -201.08,167.405 -80.81,0 -128.92,-16.36 -175.09,-70.23 l 64.46,-60.62 c 26.94,34.63 52.91,47.14 106.79,47.14 76.01,0 106.8,-29.82 106.8,-91.402 l 0,-34.633 -128.93,0 c -111.6,0 -168.37,-58.691 -168.37,-140.461 0,-41.371 13.48,-78.894 38.48,-104.879 29.83,-29.816 70.25,-44.246 130.85,-44.246 60.61,0 94.29,14.43 129.89,50.032 l 0,-44.262 96.2,0 z m -98.12,176.062 c 0,-34.632 -6.74,-57.726 -21.17,-72.156 -25.99,-25.015 -53.88,-27.906 -91.4,-27.906 -61.57,0 -89.48,25.016 -89.48,69.277 0,44.262 29.83,70.231 87.55,70.231 l 114.5,0 0,-39.446" /><path
         id="path70"
         style="fill:#231f20;fill-opacity:1;fill-rule:nonzero;stroke:none"
         d="m 3748.51,736.371 -67.34,64.461 c -30.8,-33.66 -54.85,-46.168 -93.33,-46.168 -37.52,0 -69.27,15.383 -90.44,43.293 -21.17,26.938 -28.86,62.539 -28.86,119.293 0,56.77 7.69,91.4 28.86,118.34 21.17,27.91 52.92,43.29 90.44,43.29 38.48,0 62.53,-12.5 93.33,-46.18 l 67.34,65.43 c -46.19,49.06 -93.33,68.31 -160.67,68.31 -109.67,0 -217.45,-66.39 -217.45,-249.19 0,-182.801 107.78,-250.141 217.45,-250.141 67.34,0 114.48,20.2 160.67,69.262" /><path
         id="path72"
         style="fill:#231f20;fill-opacity:1;fill-rule:nonzero;stroke:none"
         d="m 4255.46,672.879 0,314.601 c 0,105.83 -60.62,178.96 -169.34,178.96 -48.1,0 -92.36,-18.28 -126.04,-54.85 l 0,246.31 -98.13,0 0,-685.021 98.13,0 0,299.215 c 0,73.116 44.27,106.786 99.1,106.786 54.85,0 98.14,-32.7 98.14,-106.786 l 0,-299.215 98.14,0" /><path
         id="path74"
         style="fill:#231f20;fill-opacity:1;fill-rule:nonzero;stroke:none"
         d="m 5035.7,1160.67 -104.86,0 -94.3,-343.482 -112.57,343.482 -76,0 -113.52,-343.482 -94.29,343.482 -103.91,0 151.04,-487.791 84.68,0 113.52,340.581 114.5,-340.581 83.69,0 152.02,487.791" /><path
         id="path76"
         style="fill:#231f20;fill-opacity:1;fill-rule:evenodd;stroke:none"
         d="m 5509.94,888.387 0,43.293 c 0,138.54 -76,234.76 -206.85,234.76 -125.08,0 -206.86,-91.4 -206.86,-249.19 0,-185.68 97.18,-250.141 219.37,-250.141 85.61,0 132.77,25.969 182.8,76 l -62.54,58.692 c -34.65,-34.629 -63.51,-50.031 -118.34,-50.031 -79.86,0 -124.11,52.91 -124.11,136.617 l 316.53,0 z m -97.17,68.308 -219.36,0 c 0.96,29.832 2.88,44.265 12.51,66.385 15.38,36.56 50.99,61.57 97.17,61.57 46.17,0 80.82,-25.01 96.2,-61.57 9.63,-22.12 12.51,-36.553 13.48,-66.385" /><path
         id="path78"
         style="fill:#231f20;fill-opacity:1;fill-rule:nonzero;stroke:none"
         d="m 5982.12,1120.25 c -33.67,33.68 -69.26,46.19 -116.41,46.19 -54.83,0 -104.87,-24.05 -129.88,-58.69 l 0,52.92 -96.22,0 0,-487.791 98.14,0 0,296.324 c 0,67.357 44.26,109.677 97.17,109.677 33.68,0 51,-10.58 73.13,-32.7 l 74.07,74.07" /><path
         id="path80"
         style="fill:#231f20;fill-opacity:1;fill-rule:nonzero;stroke:none"
         d="m 6265.96,672.879 0,83.707 -40.41,0 c -36.56,0 -53.87,21.156 -53.87,56.754 l 0,263.62 94.28,0 0,75.04 -94.28,0 0,148.16 -98.14,0 0,-148.16 -55.8,0 0,-75.04 55.8,0 0,-268.421 c 0,-70.246 42.32,-135.66 133.73,-135.66 l 58.69,0" /><path
         id="path82"
         style="fill:#7cb021;fill-opacity:1;fill-rule:nonzero;stroke:none"
         d="m 626.629,1368.95 c 243.926,69.7 515.941,74.36 761.291,8.89 72.11,-241.47 76.79,-511.899 11.7,-755.438 C 1157.8,547.891 886.582,543.039 641.434,604.711 569.395,849.105 564.605,1121.91 626.629,1368.95" /><path
         id="path84"
         style="fill:#f47216;fill-opacity:1;fill-rule:nonzero;stroke:none"
         d="M 55.5391,1612.41 C 129.008,1635.94 542.926,1375.34 548.438,1381.05 458.598,1009.12 526.855,757.098 561.754,615.797 562.684,612.035 103.613,788.004 68.9414,847.043 1.76172,911.914 -25.8633,1586.34 55.5391,1612.41" /><path
         id="path86"
         style="fill:#f47216;fill-opacity:1;fill-rule:nonzero;stroke:none"
         d="m 382.387,1931.33 c -22.242,-73.87 245.558,-483.16 239.949,-488.78 370.301,96.33 623.484,32.49 765.374,0.07 3.78,-0.87 -180.19,455.06 -239.83,488.69 -66.04,66.04 -740.853,81.87 -765.493,0.02" /><g
         id="g88"><g
           clip-path="url(#clipPath92)"
           id="g90"><path
             id="path96"
             style="fill:#f47216;fill-opacity:1;fill-rule:nonzero;stroke:none"
             d="M 55.5391,1612.41 C 129.008,1635.94 542.926,1375.34 548.438,1381.05 458.598,1009.12 526.855,757.098 561.754,615.797 562.684,612.035 103.613,788.004 68.9414,847.043 1.76172,911.914 -25.8633,1586.34 55.5391,1612.41" /></g></g></g></g></svg>